<svg height="512pt" viewBox="0 0 511 512" width="512pt" xmlns="http://www.w3.org/2000/svg"><g fill="#ffcd6b"><path d="m173.160156 250.898438 25.714844 28.429687-144.40625 130.601563-25.710938-28.429688zm0 0"/><path d="m299.390625 95.292969 29.984375 23.882812-121.296875 152.292969-29.984375-23.882812zm0 0"/><path d="m434.386719 31.339844 14.855469 35.339844-118.316407 49.734374-14.855469-35.339843zm0 0"/></g><path d="m342.449219 327.910156c1.820312-.019531 3.015625-2.054687 3.015625-6.113281v-143.167969c0-10.359375 7.75-19.332031 18.070312-20.242187 11.785156-1.042969 21.675782 8.222656 21.675782 19.792969v73.011718c0-10.597656 8.085937-19.640625 18.660156-20.363281 11.648437-.800781 21.441406 8.511719 21.441406 20v3.695313c1.890625-9.953126 11.195312-17.367188 21.898438-16.207032 10.242187 1.109375 17.847656 10.066406 17.847656 20.371094v11.761719c1.886718-9.953125 11.195312-17.367188 21.898437-16.207031 10.242188 1.109374 17.847657 10.0625 17.847657 20.367187v81.191406c0 23.875-5.21875 47.460938-15.289063 69.109375l-2.230469 4.796875h-128.46875c-9.226562-5.949219-19.730468-18.800781-22.304687-22.550781-13.421875-19.539062-20.917969-32.046875-33.164063-52.390625-4.082031-6.78125-9.265625-16.316406-14.308594-25.496094-5.835937-10.628906-1.851562-23.976562 8.855469-29.660156 10.195313-5.414063 22.84375-1.917969 28.804688 7.96875 4.332031 7.175781 8.726562 14.253906 10.605469 16.667969 1.910156 2.460937 3.71875 3.683594 5.144531 3.664062zm0 0" fill="#ffcebf"/><path d="m504.804688 274.566406v81.234375c0 23.871094-5.21875 47.460938-15.289063 69.109375l-2.234375 4.796875h-16.417969l2.230469-4.796875c10.070312-21.648437 15.285156-45.238281 15.285156-69.109375v-81.234375c0-8.179687-4.8125-15.4375-11.855468-18.664062 2.847656-1.296875 6.046874-1.941406 9.40625-1.746094 10.667968.613281 18.875 9.726562 18.875 20.410156zm0 0" fill="#ffbfab"/><path d="m498.699219 436.25v61.703125c0 3.597656-2.945313 6.542969-6.542969 6.542969h-140.144531c-3.601563 0-6.546875-2.945313-6.546875-6.542969v-61.703125c0-3.597656 2.945312-6.542969 6.546875-6.542969h140.140625c3.601562 0 6.546875 2.945313 6.546875 6.542969zm0 0" fill="#5ee2c5"/><path d="m498.699219 436.25v61.699219c0 3.601562-2.945313 6.542969-6.542969 6.542969h-15.804688c3.597657 0 6.542969-2.941407 6.542969-6.542969v-61.699219c0-3.597656-2.945312-6.542969-6.542969-6.542969h15.804688c3.597656 0 6.542969 2.945313 6.542969 6.542969zm0 0" fill="#00d3b4"/><path d="m512.308594 274.609375c0-14.347656-10.550782-26.3125-24.546875-27.828125-5.890625-.636719-11.609375.671875-16.476563 3.421875-3.210937-10.347656-12.15625-18.144531-23.265625-19.347656-7.136719-.769531-14.015625 1.3125-19.4375 5.351562-1.257812-2.007812-2.78125-3.863281-4.539062-5.503906-5.566407-5.199219-13.101563-7.882813-20.6875-7.363281-3.816407.265625-7.414063 1.316406-10.640625 3v-48.160156c0-7.660157-3.242188-15.019532-8.890625-20.195313-5.648438-5.171875-13.289063-7.753906-20.953125-7.074219-13.96875 1.234375-24.910156 13.410156-24.910156 27.71875v33.347656c0 4.144532 3.359374 7.503907 7.503906 7.503907 4.144531 0 7.503906-3.359375 7.503906-7.503907v-33.347656c0-6.601562 4.929688-12.210937 11.222656-12.765625 3.539063-.3125 6.90625.820313 9.496094 3.191407 2.59375 2.371093 4.019531 5.613281 4.019531 9.125v136.359374c0 4.144532 3.359375 7.503907 7.503907 7.503907 4.144531 0 7.503906-3.359375 7.503906-7.503907v-63.34375c0-6.773437 5.125-12.433593 11.667968-12.878906 3.496094-.238281 6.84375.949219 9.417969 3.355469 2.273438 2.121094 3.644531 4.890625 3.945313 7.902344-.070313.410156-.113282.828125-.113282 1.253906v63.710937c0 4.144532 3.359376 7.503907 7.503907 7.503907s7.503906-3.359375 7.503906-7.503907v-58.425781c.011719-.0625.03125-.125.042969-.191406 1.214844-6.390625 7.242187-10.847656 13.71875-10.144531 6.253906.675781 11.152344 6.347656 11.152344 12.90625v11.765625c0 .257812.015624.511719.039062.765625v43.324218c0 4.144532 3.359375 7.503907 7.503906 7.503907 4.144532 0 7.503906-3.359375 7.503906-7.503907v-43.410156c1.515626-6 7.316407-10.101562 13.546876-9.425781 6.253906.675781 11.152343 6.347656 11.152343 12.90625v81.191406c0 22.625-5.042969 45.429688-14.589843 65.945313l-.210938.457031c-.332031 0-.679688 0-1.042969 0h-120.304687c-7.382813-5.445313-16.027344-15.757813-18.457032-19.296875-13.039062-18.976562-20.257812-30.96875-32.21875-50.84375l-.703124-1.164062c-3.53125-5.875-8.046876-14.101563-12.410157-22.058594l-1.75-3.183594c-1.847656-3.367188-2.261719-7.246094-1.160156-10.925781 1.097656-3.679688 3.570313-6.695313 6.960937-8.496094 6.671876-3.542969 14.957032-1.25 18.859376 5.21875 8.394531 13.917969 10.433593 16.539063 11.105468 17.402344 3.390625 4.355469 7.101563 6.5625 11.035156 6.5625h.117188c4.8125-.054688 10.4375-3.652344 10.4375-13.621094v-77.683594c0-4.144531-3.359375-7.503906-7.503906-7.503906-4.144532 0-7.503906 3.359375-7.503906 7.503906v67.5c-1.292969-2.078125-2.882813-4.671875-4.835938-7.914062-8.015625-13.292969-25.039062-18-38.75-10.71875-6.964844 3.699219-12.046875 9.898437-14.300781 17.453125-2.257813 7.558594-1.410157 15.53125 2.386719 22.445312l1.742187 3.179688c4.4375 8.085937 9.023437 16.449218 12.714844 22.578125l.699219 1.167969c11.691406 19.421874 19.414062 32.253906 32.707031 51.597656 1.761719 2.5625 6.546875 8.578125 12.324219 14.402344-2.867188 2.574218-4.6875 6.296874-4.6875 10.445312v61.699219c0 7.75 6.300781 14.050781 14.050781 14.050781h140.140625c7.75 0 14.050781-6.300781 14.050781-14.050781v-61.699219c0-5.539062-3.230469-10.328125-7.902344-12.613281 9.171875-21.308594 14.007813-44.65625 14.007813-67.835938zm-21.113282 222.382813h-138.226562v-59.78125h9.9375 1.429688 126.859374zm0 0"/><path d="m230.410156 256.550781c0 19.289063-15.636718 34.929688-34.929687 34.929688-19.289063 0-34.929688-15.640625-34.929688-34.929688 0-19.292969 15.640625-34.929687 34.929688-34.929687 19.292969 0 34.929687 15.636718 34.929687 34.929687zm0 0" fill="#83afe4"/><path d="m357.324219 99.882812c0 19.292969-15.640625 34.929688-34.929688 34.929688-19.292969 0-34.933593-15.636719-34.933593-34.929688 0-19.289062 15.640624-34.929687 34.933593-34.929687 19.289063 0 34.929688 15.640625 34.929688 34.929687zm0 0" fill="#ff4343"/><path d="m492.363281 42.433594c0 19.292968-15.640625 34.929687-34.929687 34.929687-19.292969 0-34.933594-15.636719-34.933594-34.929687 0-19.292969 15.640625-34.929688 34.933594-34.929688 19.289062 0 34.929687 15.636719 34.929687 34.929688zm0 0" fill="#83afe4"/><path d="m77.863281 397.0625c0 19.289062-15.636719 34.929688-34.929687 34.929688-19.289063 0-34.929688-15.640626-34.929688-34.929688 0-19.292969 15.640625-34.929688 34.929688-34.929688 19.292968 0 34.929687 15.636719 34.929687 34.929688zm0 0" fill="#ff4343"/><path d="m230.410156 256.550781c0 19.289063-15.636718 34.929688-34.929687 34.929688-10.773438 0-20.410157-4.882813-26.824219-12.546875 1.179688.121094 2.382812.179687 3.601562.179687 19.292969 0 34.929688-15.640625 34.929688-34.929687 0-8.515625-3.050781-16.320313-8.113281-22.382813 17.597656 1.800781 31.335937 16.671875 31.335937 34.75zm0 0" fill="#5290d9"/><path d="m357.320312 99.886719c0 19.289062-15.640624 34.925781-34.929687 34.925781-10.777344 0-20.410156-4.882812-26.824219-12.546875 1.179688.121094 2.378906.179687 3.601563.179687 19.289062 0 34.929687-15.636718 34.929687-34.925781 0-8.515625-3.050781-16.320312-8.113281-22.382812 17.597656 1.800781 31.335937 16.667969 31.335937 34.75zm0 0" fill="#f72c2c"/><path d="m492.363281 42.433594c0 19.289062-15.636719 34.929687-34.929687 34.929687-10.765625 0-20.398438-4.875-26.792969-12.539062 1.171875.121093 2.359375.179687 3.570313.179687 19.292968 0 34.929687-15.636718 34.929687-34.925781 0-8.527344-3.050781-16.339844-8.113281-22.394531 17.597656 1.800781 31.335937 16.667968 31.335937 34.75zm0 0" fill="#5290d9"/><path d="m77.867188 397.058594c0 19.300781-15.640626 34.9375-34.929688 34.9375-10.765625 0-20.402344-4.871094-26.816406-12.546875 1.183594.121093 2.382812.179687 3.59375.179687 19.289062 0 34.929687-15.636718 34.929687-34.929687 0-8.523438-3.050781-16.328125-8.125-22.390625 17.609375 1.792968 31.347657 16.667968 31.347657 34.75zm0 0" fill="#f72c2c"/><path d="m457.433594 0c-19.304688 0-35.625 12.960938-40.753906 30.632812l-74.945313 31.5c-5.804687-2.984374-12.375-4.683593-19.339844-4.683593-23.398437 0-42.4375 19.035156-42.4375 42.433593 0 2.394532.210938 4.742188.59375 7.03125l-85.378906 107.210938c-23.253906.164062-42.125 19.128906-42.125 42.421875 0 .792969.027344 1.578125.070313 2.355469l-23.296876 21.066406c-3.070312 2.78125-3.308593 7.527344-.53125 10.601562 2.78125 3.074219 7.527344 3.3125 10.597657.53125l17.519531-15.84375c3.511719 7.117188 8.960938 13.109376 15.652344 17.292969l-92.953125 84.070313c-3.828125-6.9375-9.546875-12.6875-16.453125-16.570313l51.433594-46.519531c3.074218-2.777344 3.3125-7.523438.535156-10.597656-2.78125-3.074219-7.527344-3.3125-10.601563-.53125l-57.96875 52.429687c-1.355469-.132812-2.726562-.203125-4.117187-.203125-23.398438 0-42.433594 19.035156-42.433594 42.433594s19.035156 42.433594 42.433594 42.433594c23.398437 0 42.433594-19.035156 42.433594-42.433594 0-1.597656-.09375-3.167969-.269532-4.71875l103.792969-93.875c2.148437.335938 4.347656.515625 6.589844.515625 23.398437 0 42.433593-19.035156 42.433593-42.433594 0-3.160156-.355468-6.234375-1.015624-9.195312l83.6875-105.085938c.597656.027344 1.199218.046875 1.808593.046875 19.582031 0 36.105469-13.339844 40.972657-31.410156l73.984374-31.101562c5.984376 3.226562 12.820313 5.0625 20.082032 5.0625 23.394531 0 42.429687-19.035157 42.429687-42.433594 0-23.398438-19.03125-42.433594-42.429687-42.433594zm-414.5 424.488281c-15.121094 0-27.425782-12.304687-27.425782-27.425781s12.304688-27.425781 27.425782-27.425781 27.425781 12.304687 27.425781 27.425781-12.304687 27.425781-27.425781 27.425781zm152.546875-140.511719c-15.121094 0-27.425781-12.304687-27.425781-27.429687 0-15.121094 12.304687-27.421875 27.425781-27.421875 15.121093 0 27.425781 12.300781 27.425781 27.421875 0 15.125-12.304688 27.429687-27.425781 27.429687zm34.523437-52.054687c-4.578125-6.398437-10.882812-11.480469-18.230468-14.550781l75.105468-94.304688c4.324219 6.601563 10.429688 11.925782 17.640625 15.289063zm92.390625-104.613281c-15.125 0-27.429687-12.300782-27.429687-27.425782 0-15.121093 12.304687-27.425781 27.429687-27.425781 15.121094 0 27.425781 12.304688 27.425781 27.425781 0 15.125-12.304687 27.425782-27.425781 27.425782zm32.652344-54.488282 60.265625-25.332031c.960938 8.074219 4.199219 15.460938 9.054688 21.496094l-59.933594 25.191406c-1.089844-8.046875-4.429688-15.390625-9.386719-21.355469zm102.386719-2.960937c-15.125 0-27.425782-12.304687-27.425782-27.425781s12.300782-27.425782 27.425782-27.425782c15.121094 0 27.425781 12.304688 27.425781 27.425782s-12.304687 27.425781-27.425781 27.425781zm0 0"/></svg>